<svg xmlns="http://www.w3.org/2000/svg" viewBox="0 0 128 128" xmlns:v="https://vecta.io/nano"><path fill="#d04526" d="M50 81.25c0 6.57 2.74 6.57 3.83 6.57h20c1.1 0 4.1 0 4.1-6.85l1.64-25.2H48.12zm18.1-19.7a1.79 1.79 0 0 1 3.56.27l-1.1 17.25a1.83 1.83 0 0 1-1.92 1.64c-1.1 0-1.64-.82-1.64-1.92zm-9.86-1.64c1.1 0 1.92.55 1.92 1.64L61 78.8a1.54 1.54 0 0 1-1.64 1.92 1.58 1.58 0 0 1-1.64-1.64l-1.1-17.25c-.01-1.1.53-1.93 1.63-1.93zm26.02-12.07h-40.8a.59.59 0 0 0-.55.55v3.3a.59.59 0 0 0 .55.55h40.8a.59.59 0 0 0 .55-.55v-3.3a.59.59 0 0 0-.55-.55zM98 0H30A30 30 0 0 0 0 30v68a30 30 0 0 0 30 30h68a30 30 0 0 0 30-30V30A30 30 0 0 0 98 0zm-9.36 51.68a4.21 4.21 0 0 1-4.11 4.11h-1.1L81.8 81.25c-.27 9-5.48 10.13-7.67 10.13h-20c-2.74 0-7.4-1.37-7.4-10.13l-1.9-25.46h-1.37a4.39 4.39 0 0 1-4.1-3.79v-3.6a4.21 4.21 0 0 1 4.11-4.11h4.66v-.55a7.25 7.25 0 0 1 7.12-7.12h17.5a7.25 7.25 0 0 1 7.12 7.12v.55h4.66a4.42 4.42 0 0 1 4.11 4.11zM76 43.74a3.62 3.62 0 0 0-3.56-3.56h-17.2a3.62 3.62 0 0 0-3.56 3.56v.55H76z"/></svg>