<svg xmlns="http://www.w3.org/2000/svg" viewBox="0 0 512 512" fill="#2b57964d" xmlns:v="https://vecta.io/nano"><path d="M462.64 121.02c-12.17-11.44-27.5-18.43-43.8-20.12-.1-.01-.2-.02-.3-.04a78.7 78.7 0 0 0-3.06-.23c-.23-.01-.45-.04-.68-.05a76.24 76.24 0 0 0-3.71-.09h-7.73V81.03c0-14.3-5.57-27.74-15.68-37.85S364.13 27.5 349.83 27.5c-29.52 0-53.53 24-53.53 53.53v19.46h-80.6V81.03c0-14.3-5.57-27.74-15.68-37.85S176.47 27.5 162.17 27.5c-29.52 0-53.53 24-53.53 53.53v19.46h-7.73a76.24 76.24 0 0 0-3.71.09c-.23.01-.45.03-.68.05-1.02.06-2.05.13-3.06.23-.1.01-.2.02-.3.04-16.3 1.7-31.64 8.68-43.8 20.12-13.9 13.05-21.86 30.5-21.86 47.88v237.2c0 21.6 7.52 41.47 21.17 55.95 13.66 14.48 32.2 22.46 52.24 22.46h310.2c20.02 0 38.57-7.98 52.24-22.46 13.66-14.5 21.16-34.35 21.16-55.95V168.9c0-17.37-7.97-34.83-21.86-47.88zm-134.34-40c0-11.87 9.66-21.53 21.53-21.53a21.43 21.43 0 0 1 15.23 6.3 21.41 21.41 0 0 1 6.3 15.23v53.84c0 11.87-9.66 21.53-21.53 21.53s-21.53-9.66-21.53-21.53V81.03zm-187.66 0c0-11.87 9.66-21.53 21.53-21.53a21.43 21.43 0 0 1 15.23 6.3 21.41 21.41 0 0 1 6.3 15.23v53.84c0 11.87-9.66 21.53-21.53 21.53s-21.53-9.66-21.53-21.53V81.03zm-32 51.46v2.38c0 29.52 24 53.53 53.53 53.53s53.53-24 53.53-53.53v-2.38h80.6v2.38c0 29.52 24 53.53 53.53 53.53s53.53-24 53.53-53.53v-2.38h7.73c22.83 0 41.4 18.58 41.4 41.4v41.4h-393v-41.4c0-22.83 18.58-41.4 41.4-41.4h7.73zm302.45 320H100.9c-24 0-41.4-19.52-41.4-46.4V247.3h393v158.8c0 26.9-17.42 46.4-41.4 46.4zm-114-182.46h-90.3a16 16 0 1 0 0 32h77.9l-53.06 112.5c-3.77 8-.35 17.53 7.64 21.3a15.93 15.93 0 0 0 6.82 1.53c6 0 11.75-3.4 14.48-9.18l58.35-123.7a24.03 24.03 0 0 0-1.45-23.23 23.99 23.99 0 0 0-20.38-11.2z"/></svg>