<svg xmlns="http://www.w3.org/2000/svg" viewBox="0 0 128 128" xmlns:v="https://vecta.io/nano"><path fill="#2b5796" d="M98 0H30A30 30 0 0 0 0 30v68a30 30 0 0 0 30 30h68a30 30 0 0 0 30-30V30A30 30 0 0 0 98 0zM48 58.13a1.5 1.5 0 0 1 2.31-.21L62.68 69V38A1.68 1.68 0 0 1 66 38v31l12.4-11.08a1.64 1.64 0 0 1 2.1 2.52l-13.42 12a4.07 4.07 0 0 1-5.45 0l-13.42-12a1.91 1.91 0 0 1-.22-2.31zm-3.78 22.44H84.5a1.68 1.68 0 1 1 0 3.36H44.22a1.8 1.8 0 0 1-1.68-1.68 1.65 1.65 0 0 1 1.68-1.68zM95.4 76v6a9.76 9.76 0 0 1-9.65 9.65H42.12A9.76 9.76 0 0 1 32.48 82v-6a1.68 1.68 0 0 1 3.36 0v6a6.53 6.53 0 0 0 6.5 6.5H86a6.53 6.53 0 0 0 6.5-6.5v-6a1.65 1.65 0 0 1 1.68-1.68c1-.04 1.63.8 1.2 1.68z"/></svg>